<svg xmlns="http://www.w3.org/2000/svg" width="190" height="135.3741" x="323" y="136.2028" version="1.1" preserveAspectRatio="none" viewBox="19.99964141845703 43.00100326538086 159.99993896484375 113.99905395507812">
  <g transform="matrix(1 0 0 1 0 0)"><g><path d="M81.337 101.826h-8.79a4.517 4.517 0 0 1-4.517-4.517v-.018a4.517 4.517 0 0 1 4.517-4.517h8.79a4.517 4.517 0 0 1 4.517 4.517v.017a4.517 4.517 0 0 1-4.517 4.518z" data-color="1" class="icon11f44e7ef-1684-4ca4-8c9e-a77c42a663fe"/><path d="M104.771 113.05h-8.79a4.517 4.517 0 0 1-4.517-4.517v-.017a4.517 4.517 0 0 1 4.517-4.517h8.79a4.517 4.517 0 0 1 4.517 4.517v.018a4.516 4.516 0 0 1-4.517 4.516z" data-color="1" class="icon11f44e7ef-1684-4ca4-8c9e-a77c42a663fe"/><path d="M91.464 64.562v20.186H74.232V64.562h17.232z" data-color="1" class="icon11f44e7ef-1684-4ca4-8c9e-a77c42a663fe"/><path d="M70.592 104.017h-2.54a2.199 2.199 0 0 1-2.19-2.194v-4.641c0-1.207.985-2.194 2.19-2.194h13.445c1.204 0 2.19.987 2.19 2.194v4.641a2.198 2.198 0 0 1-2.19 2.194H70.592z" data-color="2" class="icon21f44e7ef-1684-4ca4-8c9e-a77c42a663fe"/><path d="M29.174 117.79s-4.609 6.874-6.371 11.983c-1.762 5.109-4.371 11.454-.835 14.346 3.536 2.892 7.34.305 7.34.305s.113 3.558 0 6.414-.317 5.7-.317 5.7l28.572.261s-1.195-5.926-1.525-9.489c-.331-3.564-.489-5.751-.489-5.751s4.72.88 6.155.386c1.435-.494 14.755-19.206 14.755-19.206l1.671-8.861s-1.636-2.982-5.818-3.319c-4.182-.336-6.055 1.036-6.055 1.036l-4.341 13.017-4.152 3.226s-1.857-.412-3.638-5.576c-1.782-5.164-4.144-9.303-9.8-10.218-5.657-.917-15.152 5.746-15.152 5.746z" data-color="3" class="icon31f44e7ef-1684-4ca4-8c9e-a77c42a663fe"/><path d="M41.858 115.394s3.972-1.971 3.766-5.072c-.24-3.607-3.125-5.675-4.77-6.004l.285-3.921s4.354-.846 5.589-5.343l.573 2.641s.725-.598 1.319-2.48c.763-2.419-1.472-4.39-3.101-4.76-2.443-.556-4.424-.203-5.058.602l-.438.579s-2.671-1.955-6.868-.04c-2.738 1.25-2.854 3.619-2.854 3.619l.751 7.93s-3.428.002-3.898 2.739c-.47 2.737 2.58 4.672 2.58 4.672s-3.608 1.205-3.507 4.17c.093 2.717 3.082 3.633 4.726 3.313.702-.137 1.377-.253 1.759-.636 0 0 1.827 3.175 5.952 2.639 3.038-.395 3.455-2.542 3.463-2.926.006-.384-.269-1.722-.269-1.722z" data-color="1" class="icon11f44e7ef-1684-4ca4-8c9e-a77c42a663fe"/><path d="M135.855 111.663s2.067-.363 4.17 1.164c2.102 1.527 2.523 3.99 2.122 6.075 0 0 2.805.351 4.614 1.703 1.809 1.352 3.198 3.008 5.855 9.296 2.658 6.288 3.833 10.091 4.642 13.587.809 3.497 1.08 6.505.601 9.159-.479 2.654-1.457 4.03-1.457 4.03h-43.507l-.528-31.477s3.06-5.792 11.686-6.948c0 0-1.145-3.369 2.022-5.525 3.167-2.155 9.78-1.064 9.78-1.064z" data-color="3" class="icon31f44e7ef-1684-4ca4-8c9e-a77c42a663fe"/><path d="M135.125 109.16s2.124 1.223 3.392-.592c1.267-1.815-.155-3.3-.836-3.546-.681-.245-2.353-.611-3.142.738l-.288.291s-.787-2.115-.243-3.857l-.011-.544s-3.197.531-4.391.619c-1.062.078-2.173-.057-4.356-.769 0 0-.187 7.543-.102 9.189s1.092 2.995 2.632 3.153v3.927l-1.544.193s1.889 2.115 3.222 2.128c1.332.013 5.329-.931 6.276-1.333.947-.402 1.336-.503 1.336-.503l-1.027-.16-.635-8.487-.283-.447z" data-color="1" class="icon11f44e7ef-1684-4ca4-8c9e-a77c42a663fe"/><path d="M138.037 141.054s-3.168-4.263-4.229-5.179c-1.061-.916-2.497-1.948-4.205-2.11l-2.549 2.788-1.372.299 2.214 6.943 2.086-.301s1.222.284 2.291 2.908c0 0 1.662-.546 3.58-2.697s2.184-2.651 2.184-2.651z" data-color="1" class="icon11f44e7ef-1684-4ca4-8c9e-a77c42a663fe"/><path d="m125.049 135.366 1.476-1.942s-1.815.359-1.958.789l.482 1.153z" data-color="1" class="icon11f44e7ef-1684-4ca4-8c9e-a77c42a663fe"/><path d="M77.101 112.368s1.138-2.361 1.176-3.858c.038-1.497-.58-2.281-1.416-2.262 0 0-.377-1.537-2.087-1.323l1.565-4.756s.259-1.509-.887-1.657c-1.146-.147-1.782 1.723-1.782 1.723l-2.144 6.495s-.286 1.26-1.188 1.26a1.321 1.321 0 0 1-1.347-1.232c-.014-.49-.682-1.906-1.809-1.734-1.127.172-.897 1.169-.333 3.206.563 2.037.801 2.672.801 2.672s2.416-.865 5.128-.253c2.711.612 4.323 1.719 4.323 1.719z" data-color="1" class="icon11f44e7ef-1684-4ca4-8c9e-a77c42a663fe"/><path d="M102.557 125.373h19.13l9.042 26.619h-19.672s.161-.49-.196-1.715-8.304-24.904-8.304-24.904z" data-color="1" class="icon11f44e7ef-1684-4ca4-8c9e-a77c42a663fe"/><path d="m129.124 130.737.703-.836 1.711 1.444-.786.764-1.628-1.372z" data-color="1" class="icon11f44e7ef-1684-4ca4-8c9e-a77c42a663fe"/><path d="m129.124 130.737 1.712 1.534-3.674 4.282-1.508.3-.473-1.406 3.943-4.71z" data-color="3" class="icon31f44e7ef-1684-4ca4-8c9e-a77c42a663fe"/><path d="M131.783 109.042s-1.049.765-.983 1.569c.066.804.181 1.052.181 1.052s-2.454.545-2.502-.574c-.032-.748.668-.861 1.089-.861.42 0 1.07-.019 1.031-.478-.039-.46.515-1.723 1.184-.708z" data-color="2" class="icon21f44e7ef-1684-4ca4-8c9e-a77c42a663fe"/><path d="M138.117 105.153s1.688-2.509 1.563-4.652c-.125-2.143-1.445-3.271-3.726-3.498 0 0-2.047-2.419-4.036-2.241-1.989.178-3.474 1.275-3.474 1.275s-3.698-.863-5.308 2.005c-1.61 2.868 1.074 5.293 1.96 5.598l.051-2.178s2.288 1.016 4.872.767c2.584-.248 4.085-.58 4.085-.58s-.728 2.783.146 4.211c0 0 .731-1.079 2.101-1.076 1.371.003 1.766.369 1.766.369z" data-color="2" class="icon21f44e7ef-1684-4ca4-8c9e-a77c42a663fe"/><path d="M112.961 69.052V58.176c0-2.666 2.177-4.847 4.838-4.847h35.317c2.661 0 4.838 2.181 4.838 4.847v19.696c0 2.666-2.177 4.847-4.838 4.847h-35.317c-2.661 0-4.838-2.181-4.838-4.847v-8.82z" data-color="3" class="icon31f44e7ef-1684-4ca4-8c9e-a77c42a663fe"/><path d="m61.319 124.375 2.635-1.423 34.732-.086s2.775.29 4.125 3.275l1.292.88 5.373 15.579 1.305 7.675s1.375 5.099-3.947 6.402l-1.884-.049-43.631-32.253z" data-color="1" class="icon11f44e7ef-1684-4ca4-8c9e-a77c42a663fe"/><path d="M103.651 156.798H70.497c-2.185 0-4.124-1.342-4.811-3.331l-7.863-22.752c-1.087-3.145 1.355-6.387 4.811-6.387h33.154c2.185 0 4.124 1.342 4.811 3.331l7.863 22.752c1.087 3.144-1.355 6.387-4.811 6.387z" data-color="2" class="icon21f44e7ef-1684-4ca4-8c9e-a77c42a663fe"/><path d="M82.07 139.848c1.01 1.753.895 3.713-.256 4.379-1.151.666-2.903-.215-3.913-1.968-1.01-1.753-.895-3.713.256-4.379 1.151-.665 2.903.216 3.913 1.968z" data-color="1" class="icon11f44e7ef-1684-4ca4-8c9e-a77c42a663fe"/><path d="M41.161 124.328s2.244 15.692 14.543 20.207l-.155-2.979c0 .001-10.444-1.768-14.388-17.228z" data-color="2" class="icon21f44e7ef-1684-4ca4-8c9e-a77c42a663fe"/><path d="M46.625 95.216s.592 2.738.873 5.173l.102.229s1.657.256 1.863.944c.206.688-1.091 2.002-1.091 2.002s.606 2.664-.824 3.737c-1.431 1.072-2.313 1.011-2.313 1.011s-.951-3.753-4.921-4.152c0 0-2.438.736-3.073-1.362-.634-2.098 1.232-2.868 1.94-2.808.708.06 1.531.366 1.531.366s2.655-1.684 3.648-2.641c.993-.958 2.265-2.499 2.265-2.499z" data-color="1" class="icon11f44e7ef-1684-4ca4-8c9e-a77c42a663fe"/><path d="m132.206 146.403-1.031-1.752s-1.56 1.569-1.143 2.258c.417.688 2.174-.506 2.174-.506z" data-color="2" class="icon21f44e7ef-1684-4ca4-8c9e-a77c42a663fe"/><path d="m137.97 141.054-1.246-1.64s1.165-.695 1.818-.121c.654.574-.572 1.761-.572 1.761z" data-color="2" class="icon21f44e7ef-1684-4ca4-8c9e-a77c42a663fe"/><path d="m127.621 113.817.158 3.95-1.544.193s-1.605-2.41 1.248-4.143h.138z" data-color="2" class="icon21f44e7ef-1684-4ca4-8c9e-a77c42a663fe"/><path d="M135.733 113.205s3.644.225 3.669 2.078c.025 1.853-2.334 2.81-2.334 2.81h-1.027l-.308-4.888z" data-color="2" class="icon21f44e7ef-1684-4ca4-8c9e-a77c42a663fe"/><path d="M123.855 68.961a3.416 3.416 0 0 1-3.412 3.419 3.416 3.416 0 0 1-3.412-3.419 3.416 3.416 0 0 1 3.412-3.419 3.416 3.416 0 0 1 3.412 3.419z" data-color="4" class="icon11f44e7ef-1684-4ca4-8c9e-a77c42a663fe"/><path d="M84.397 67.563c0 .773-.625 1.399-1.396 1.399a1.398 1.398 0 0 1-1.396-1.399c0-.773.625-1.399 1.396-1.399.771 0 1.396.626 1.396 1.399z" data-color="3" class="icon31f44e7ef-1684-4ca4-8c9e-a77c42a663fe"/><path d="M133.996 101.649c-.833.318-6.271-.28-8.486-1.122-1.857-.706-1.513-2.964-1.352-3.679a3.925 3.925 0 0 0-1.021 1.193c-1.61 2.868 1.074 5.293 1.96 5.598l.051-2.178s2.288 1.016 4.872.767c2.194-.211 3.604-.481 3.98-.558.048-.032.05-.041-.004-.021z" data-color="1" class="icon11f44e7ef-1684-4ca4-8c9e-a77c42a663fe"/><path d="m134.301 101.573-.27.399c-.16.772-.475 2.754.219 3.888 0 0 .247-.362.721-.667-.693-.421-.67-3.62-.67-3.62z" data-color="1" class="icon11f44e7ef-1684-4ca4-8c9e-a77c42a663fe"/><path d="M129.848 114.319c-2.156 0-4.328-.826-4.744-2.83-.091-.438-.114-1.363-.136-2.258l-.018-.663c-.026-.852.108-6.676.113-6.924a.201.201 0 0 1 .202-.197.204.204 0 0 1 .202.207c-.001.06-.138 6.061-.113 6.902l.018.664c.022.877.044 1.784.127 2.186.431 2.077 3.064 2.726 5.334 2.448.776-.095 1.369-.221 1.867-.397a.202.202 0 0 1 .134.38c-.525.186-1.146.319-1.952.417a8.26 8.26 0 0 1-1.034.065z"/><path d="M136.006 118.295a.201.201 0 0 1-.201-.192l-.443-8.71a.202.202 0 0 1 .191-.212c.121-.017.207.08.212.191l.443 8.71a.202.202 0 0 1-.191.212l-.011.001z"/><path d="M136.576 109.812a2.621 2.621 0 0 1-1.602-.548.201.201 0 0 1-.036-.283.2.2 0 0 1 .283-.037 2.219 2.219 0 0 0 2.774-.048 2.242 2.242 0 0 0 .307-3.148 2.211 2.211 0 0 0-1.507-.806 2.248 2.248 0 0 0-1.635.498 2.236 2.236 0 0 0-.67.934.202.202 0 0 1-.378-.142c.162-.429.436-.811.791-1.104a2.623 2.623 0 0 1 1.93-.588 2.613 2.613 0 0 1 1.779.951 2.648 2.648 0 0 1-2.036 4.321z"/><path d="M125.301 104.147a.201.201 0 0 1-.183-.286c.005-.01.496-1.024 1.922-.646a.2.2 0 0 1 .144.246.195.195 0 0 1-.246.144c-1.1-.289-1.442.398-1.456.427a.199.199 0 0 1-.181.115z"/><path d="M132.249 104.263a.202.202 0 0 1-.159-.078c-.943-1.208-1.871-.634-1.911-.61a.204.204 0 0 1-.279-.061.203.203 0 0 1 .061-.279c.013-.007 1.279-.793 2.446.702a.202.202 0 0 1-.158.326z"/><path d="M130.005 112.029c-.22 0-.441-.032-.657-.097-.493-.149-.874-.445-.995-.775-.105-.288-.067-.567.106-.786.217-.272.615-.407 1.039-.357.543.068.591.029.701-.051.11-.081.16-.118.256-.656.075-.421.324-.762.648-.888.262-.102.539-.055.782.131.259.198.41.622.406 1.135-.006.764-.346 1.469-.91 1.885a2.32 2.32 0 0 1-1.376.459zm-.684-1.623c-.231 0-.437.079-.546.216-.086.108-.1.241-.044.396.061.166.315.402.732.527.27.082.975.216 1.678-.301.462-.342.741-.926.746-1.564.004-.426-.121-.715-.247-.811-.13-.101-.262-.124-.391-.076-.192.075-.348.304-.397.583-.114.637-.204.756-.414.91-.21.156-.349.206-.99.127a1.093 1.093 0 0 0-.127-.007z"/><path d="M131.023 111.761a.201.201 0 0 1-.176-.104c-.755-1.353.339-2.444 1.022-2.833a.202.202 0 1 1 .199.351c-.066.038-1.617.945-.87 2.284a.203.203 0 0 1-.078.275.176.176 0 0 1-.097.027z"/><path d="M137.348 108.638a.208.208 0 0 1-.09-.021l-1.89-.938a.203.203 0 0 1-.055-.322l1.718-1.76a.205.205 0 0 1 .285-.003c.08.078.081.206.003.286l-1.524 1.561 1.642.814a.202.202 0 0 1-.089.383z"/><path d="M131.158 105.07c-.161-.022-.268.049-.302.631-.038.649.132.759.277.751.145-.009.286-.212.27-.674-.017-.463-.033-.679-.245-.708z"/><path d="M126.481 105.027c-.161-.028-.269.04-.323.621-.06.647.106.763.251.759.145-.004.293-.202.292-.665-.001-.463-.009-.679-.22-.715z"/><path d="M138.098 105.466a.202.202 0 0 1-.169-.311c1.019-1.583 2.49-4.544.902-6.591a3.42 3.42 0 0 0-1.448-1.079c-.287-.113-.584-.167-.871-.217-.017-.003-.07-.008-.136-.015-.484-.049-.546-.056-.604-.175a.202.202 0 0 1 .265-.273c.071.015.252.032.381.046.08.008.145.015.165.019.293.052.625.112.949.24a3.816 3.816 0 0 1 1.618 1.207c1.741 2.244.195 5.385-.881 7.059a.21.21 0 0 1-.171.09z"/><path d="M134.414 98.402a.202.202 0 0 1-.104-.375c.182-.11.901-.654 1.162-.855a.202.202 0 0 1 .245.321c-.039.03-.961.736-1.199.879a.196.196 0 0 1-.104.03z"/><path d="M127.119 136.674a.201.201 0 0 1-.154-.332l3.479-4.139-1.403-1.183-3.825 4.549a.201.201 0 1 1-.308-.26l3.955-4.704a.2.2 0 0 1 .284-.024l1.711 1.443a.203.203 0 0 1 .024.284l-3.609 4.293a.198.198 0 0 1-.154.073z"/><path d="M130.727 132.383a.201.201 0 0 1-.154-.332l.573-.681-1.403-1.184-.573.681a.201.201 0 1 1-.308-.26l.703-.835a.2.2 0 0 1 .284-.024l1.711 1.444a.203.203 0 0 1 .024.284l-.703.835a.2.2 0 0 1-.154.072z"/><path d="M126.521 139.902a.202.202 0 0 1-.195-.152.203.203 0 0 1 .145-.246 18.677 18.677 0 0 0 1.82-.568.204.204 0 0 1 .258.122.201.201 0 0 1-.122.258 19.33 19.33 0 0 1-1.856.579.14.14 0 0 1-.05.007z"/><path d="M125.546 137.055a.203.203 0 0 1-.032-.402c1.079-.175 2.412-.442 3.152-.946a.203.203 0 0 1 .28.054.204.204 0 0 1-.054.281c-.805.548-2.194.827-3.314 1.01a.166.166 0 0 1-.032.003z"/><path d="M127.252 142.036a.202.202 0 0 1-.019-.403c1.146-.113 1.857-.293 1.864-.294a.202.202 0 0 1 .099.391c-.03.007-.745.188-1.924.304a.15.15 0 0 1-.02.002z"/><path d="M124.606 134.308a.205.205 0 0 1-.173-.097.203.203 0 0 1 .068-.278c1.022-.622 2.193-.708 2.242-.711.108-.017.207.077.215.188a.202.202 0 0 1-.187.215c-.011.001-1.124.084-2.06.654a.2.2 0 0 1-.105.029z"/><path d="M138.037 141.256a.202.202 0 0 1-.159-.078c-.038-.048-3.751-4.836-4.681-5.63-1.593-1.358-3.78-1.606-3.802-1.608a.203.203 0 0 1-.179-.222c.012-.112.112-.185.221-.18.095.01 2.331.261 4.02 1.702.961.819 4.584 5.491 4.737 5.689a.2.2 0 0 1-.035.283.187.187 0 0 1-.122.044z"/><path d="M132.445 146.605a.202.202 0 0 1-.173-.098c-.906-1.51-1.901-2.797-2.173-2.81-.059 0-.197.025-.358.055-.408.075-1.093.201-1.855.165a.203.203 0 0 1-.192-.211c.006-.112.1-.188.211-.193.711.034 1.347-.082 1.763-.159a2.83 2.83 0 0 1 .431-.062c.647 0 1.977 2.102 2.519 3.006a.201.201 0 0 1-.069.277.201.201 0 0 1-.104.03z"/><path d="M150.477 149.14a.202.202 0 0 1-.175-.102c-2.287-4.013-9.047-8.233-11.78-9.541a.202.202 0 0 1 .174-.365c2.883 1.381 9.599 5.57 11.956 9.705a.202.202 0 0 1-.175.303z"/><path d="M141.282 157a.205.205 0 0 1-.113-.034c-3.992-2.683-8.187-6.343-11.221-9.79a.202.202 0 0 1 .302-.268c3.013 3.423 7.179 7.057 11.145 9.722a.204.204 0 0 1 .055.281.206.206 0 0 1-.168.089z"/><path d="M156.155 157a.202.202 0 0 1-.174-.305c1.017-1.727 1.633-3.876 1.733-6.051.322-7.02-2.306-13.566-5.262-20.21-.196-.441-.395-.907-.601-1.387-1.266-2.959-2.842-6.642-5.441-8.341-1.788-1.169-3.993-1.548-6.125-1.914l-.473-.082a.203.203 0 0 1-.164-.234.198.198 0 0 1 .233-.164l.471.081c2.173.374 4.419.76 6.277 1.974 2.701 1.766 4.304 5.511 5.591 8.52.205.479.403.943.599 1.381 2.977 6.691 5.622 13.286 5.297 20.394-.103 2.24-.738 4.455-1.788 6.238a.198.198 0 0 1-.173.1z"/><path d="M137.12 118.362a20.736 20.736 0 0 0-1.125-.068.202.202 0 0 1-.195-.208c.004-.112.112-.191.208-.196.371.012.7.032 1.13.068a.203.203 0 0 1-.018.404z"/><path d="M130.728 152.193h-19.752a.202.202 0 0 1 0-.404h19.47l-8.974-26.214h-19.064a.202.202 0 0 1 0-.404h19.209c.086 0 .163.055.191.136l9.111 26.618a.202.202 0 0 1-.191.268z"/><path d="M130.493 147.381c-.232 0-.418-.064-.543-.203-.415-.459-.069-1.388 1.028-2.761a.202.202 0 1 1 .314.253c-1.061 1.329-1.226 2.036-1.044 2.237.338.374 2.373-.524 4.917-2.832 1.125-1.021 2.084-2.088 2.7-3.002.65-.964.727-1.476.596-1.622-.191-.212-.672-.104-1.468.328a.203.203 0 0 1-.273-.082.203.203 0 0 1 .082-.274c.724-.39 1.522-.723 1.958-.244.33.365.142 1.078-.56 2.119-.634.94-1.616 2.033-2.764 3.075-1.8 1.635-3.87 3.008-4.943 3.008z"/><path d="M25.603 145.678c-1.425 0-3.046-.488-4.486-2.116-3.669-4.149 2.43-17.785 7.706-25.696a.202.202 0 1 1 .336.224c-6.235 9.347-10.833 21.705-7.74 25.204 3.336 3.774 7.601 1.076 7.78.961a.202.202 0 0 1 .219.339c-.028.017-1.707 1.084-3.815 1.084z"/><path d="M44.729 98.577a.194.194 0 0 1-.137-.055.201.201 0 0 1-.01-.285c.74-.795 1.726-.591 2.141-.37a.202.202 0 0 1 .084.272.197.197 0 0 1-.271.085c-.039-.02-.947-.477-1.66.288a.198.198 0 0 1-.147.065z"/><path d="M45.769 99.293c.161-.026.269.043.317.623.054.648-.113.763-.258.757-.145-.005-.291-.205-.286-.667.006-.462.016-.679.227-.713z"/><path d="M39.72 104.76a2.405 2.405 0 0 1-2.37-2.04 2.405 2.405 0 0 1 2.008-2.738 2.38 2.38 0 0 1 2.183.811.2.2 0 0 1-.022.284.199.199 0 0 1-.284-.022 1.99 1.99 0 0 0-1.817-.675 2 2 0 0 0-1.67 2.278 2 2 0 0 0 2.274 1.673 1.979 1.979 0 0 0 1.071-.526.202.202 0 0 1 .278.293 2.38 2.38 0 0 1-1.651.662z"/><path d="M39.326 103.626a.201.201 0 0 1-.135-.352l1.134-1.021-1.415-.757a.203.203 0 0 1-.083-.273.204.204 0 0 1 .273-.084l1.669.892a.206.206 0 0 1 .106.154.206.206 0 0 1-.065.174l-1.348 1.213a.196.196 0 0 1-.136.054z"/><path d="M45.358 108.513a.202.202 0 0 1-.036-.401c1.204-.219 2.06-.731 2.543-1.522.799-1.307.319-2.953.314-2.969a.202.202 0 0 1 .049-.199c.451-.465 1.133-1.371 1.038-1.82-.08-.378-1.085-.695-1.775-.8a.203.203 0 0 1-.17-.178c-.005-.044-.468-4.38-.782-5.233a.203.203 0 0 1 .119-.26.204.204 0 0 1 .259.12c.3.816.701 4.38.788 5.177.515.094 1.809.395 1.955 1.089.152.717-.766 1.779-1.064 2.102.103.425.386 1.916-.387 3.182-.546.893-1.493 1.467-2.815 1.708a.147.147 0 0 1-.036.004z"/><path d="M67.649 111.104a.201.201 0 0 1-.182-.115c-.208-.434-.403-1.174-.591-1.89a16.853 16.853 0 0 0-.333-1.165c-.239-.672-.557-1.566-.34-2.315.104-.361.338-.654.64-.803.381-.185.87-.139 1.276.122.303.195.557.489.798.925.088.158.145.379.212.633.136.522.306 1.171.776 1.284.755.177 1.354-.543 1.77-2.155.208-.801.389-1.456.569-2.059.471-1.575.95-2.843 1.51-3.992l.059-.125c.157-.33.319-.672.651-.917.217-.16.496-.244.792-.219.412.026.752.207.982.523.303.415.397 1.045.247 1.647-.21.843-1.091 3.312-1.41 4.196.304-.021.756.011 1.143.273.348.234.573.602.67 1.096.26.048.778.198 1.158.651.359.427.502 1.007.424 1.725a.197.197 0 0 1-.222.179.202.202 0 0 1-.179-.222c.065-.602-.046-1.08-.329-1.419-.403-.483-1.035-.533-1.041-.534a.202.202 0 0 1-.186-.173c-.062-.452-.238-.777-.521-.968-.496-.333-1.164-.169-1.172-.167a.21.21 0 0 1-.199-.06.203.203 0 0 1-.04-.205c.012-.035 1.264-3.478 1.511-4.47.12-.481.049-.995-.181-1.311a.875.875 0 0 0-.683-.359.792.792 0 0 0-.527.142c-.251.185-.384.467-.526.765l-.061.128c-.55 1.128-1.022 2.377-1.486 3.93a58.12 58.12 0 0 0-.565 2.046c-.481 1.867-1.236 2.694-2.254 2.447-.705-.169-.917-.982-1.073-1.574-.058-.219-.111-.426-.174-.54-.208-.376-.418-.623-.662-.781-.286-.182-.633-.222-.881-.099-.197.097-.358.304-.43.553-.181.624.1 1.414.325 2.048.113.318.228.754.349 1.217.175.664.374 1.418.565 1.818.048.1.006.221-.095.27a.192.192 0 0 1-.084.019z"/><path d="M75.68 109.082a.205.205 0 0 1-.111-.033.203.203 0 0 1-.057-.28c.996-1.507.991-2.592.991-2.603a.201.201 0 0 1 .198-.205.193.193 0 0 1 .205.197c.001.048.014 1.212-1.058 2.834a.201.201 0 0 1-.168.09z"/><path d="M73.867 107.504a.2.2 0 0 1-.183-.284c.797-1.779.891-2.32.891-2.325.017-.11.116-.18.23-.168a.2.2 0 0 1 .168.228c-.003.023-.09.574-.922 2.43a.203.203 0 0 1-.184.119z"/><path d="M77.03 112.685a.202.202 0 0 1-.17-.311c1.235-1.927 1.234-4.269 1.234-4.292-.001-.112.099-.221.202-.203.111 0 .201.089.202.201.001.1.003 2.481-1.298 4.513a.204.204 0 0 1-.17.092z"/><path d="M57.563 157a.201.201 0 0 1-.191-.138c-.951-2.843-1.788-11.363-2.024-15.293a.202.202 0 0 1 .189-.214c.124-.017.207.078.213.189.236 3.911 1.064 12.381 2.004 15.189a.203.203 0 0 1-.191.267z"/><path d="M28.991 156.739c-.131-.012-.212-.111-.2-.222.007-.071.687-7.156.185-14.704-.231-3.472-.177-7.564-.133-10.853.017-1.247.032-2.403.031-3.402-.004-3.638.377-6.824 1.134-9.469a.196.196 0 0 1 .249-.138c.107.03.169.143.138.25-.746 2.608-1.122 5.757-1.118 9.358.001 1.001-.014 2.158-.031 3.408-.044 3.281-.098 7.364.132 10.82.505 7.583-.179 14.699-.187 14.771a.2.2 0 0 1-.2.181z"/><path d="M57.763 128.039a.217.217 0 0 1-.066-.011 3.199 3.199 0 0 1-1.021-.58c-.908-.759-1.421-1.88-1.87-2.962-.221-.533-.436-1.071-.652-1.609-.688-1.716-1.399-3.49-2.288-5.123-1.583-2.908-3.694-4.649-6.455-5.322a.203.203 0 0 1-.148-.244.204.204 0 0 1 .244-.149c2.877.702 5.073 2.508 6.714 5.522.901 1.654 1.616 3.439 2.308 5.165.216.537.431 1.073.651 1.605.447 1.079.917 2.105 1.756 2.807.27.226.571.397.894.508a.202.202 0 0 1-.067.393z"/><path d="M61.916 124.455a.202.202 0 0 1-.192-.265l4.055-12.407a.216.216 0 0 1 .038-.068c.062-.073 1.559-1.766 6.038-1.363 4.978.45 6.399 3.315 6.457 3.436.018.038.024.08.017.121l-.025.149c-.531 3.143-.99 5.857-1.648 8.724a.204.204 0 0 1-.242.152.203.203 0 0 1-.152-.242c.657-2.856 1.114-5.565 1.644-8.701l.014-.081c-.218-.387-1.732-2.762-6.101-3.156-3.944-.359-5.465.991-5.671 1.197l-4.041 12.364a.2.2 0 0 1-.191.14z"/><path d="M59.829 142.25c-2.773 0-5.415-.594-7.673-1.728-1.658-.833-3.203-1.978-4.593-3.401-1.173-1.202-2.25-2.619-3.202-4.21a29.106 29.106 0 0 1-2.026-4.116 30.647 30.647 0 0 1-1.063-3.13 18.75 18.75 0 0 1-.309-1.249.202.202 0 0 1 .157-.238.197.197 0 0 1 .238.157c.09.441.204.865.303 1.221a29.93 29.93 0 0 0 1.049 3.089 28.78 28.78 0 0 0 1.997 4.059c.935 1.564 1.992 2.955 3.143 4.135 1.358 1.392 2.867 2.51 4.485 3.323 2.342 1.176 5.122 1.758 8.011 1.678.461-.012.827-.032 1.331-.096.111-.021.211.064.225.175a.202.202 0 0 1-.174.226 12.74 12.74 0 0 1-1.371.1 30.98 30.98 0 0 1-.528.005z"/><path d="M126.445 118.162a.201.201 0 0 1-.201-.185.203.203 0 0 1 .184-.219l1.46-.123c.11-.014.208.074.218.185a.202.202 0 0 1-.184.218l-1.458.123-.019.001z"/><path d="M112.072 125.575a.203.203 0 0 1-.168-.314c2.629-3.984 6.422-6.274 11.938-7.207a.2.2 0 0 1 .232.165.202.202 0 0 1-.165.233c-5.398.913-9.105 3.148-11.669 7.033a.203.203 0 0 1-.168.09z"/><path d="M81.952 143.431c-.393 0-.813-.108-1.24-.322-.774-.389-1.479-1.089-1.987-1.97-1.064-1.846-.916-3.934.329-4.655.616-.357 1.397-.333 2.201.071.774.389 1.479 1.089 1.987 1.97s.76 1.844.71 2.71c-.053.897-.421 1.588-1.038 1.945a1.91 1.91 0 0 1-.962.251zm-1.937-6.793c-.277 0-.534.064-.76.195-1.053.61-1.134 2.45-.182 4.103.469.814 1.115 1.457 1.819 1.811.675.339 1.322.369 1.818.083.496-.287.793-.862.837-1.619.046-.788-.187-1.671-.656-2.485-.469-.814-1.114-1.457-1.819-1.811-.367-.184-.726-.277-1.057-.277z"/><path d="M104.97 132.953a.201.201 0 0 1-.191-.139l-2.117-6.404a4.86 4.86 0 0 0-4.62-3.342H64.888c-.356 0-.709.038-1.05.113l-2.867 1.623a.202.202 0 0 1-.198-.352l2.894-1.638c.432-.107.825-.15 1.222-.15h33.154a5.262 5.262 0 0 1 5.002 3.619l2.117 6.404a.202.202 0 0 1-.192.266z"/><path d="M105.905 157a.202.202 0 0 1 0-.404c1.582 0 3.02-.737 3.946-2.021a4.83 4.83 0 0 0 .674-4.388l-2.999-9.07a.202.202 0 0 1 .127-.255.199.199 0 0 1 .255.128l2.999 9.069a5.23 5.23 0 0 1-.73 4.752 5.21 5.21 0 0 1-4.272 2.189z"/><path d="M103.652 157H70.498c-2.275 0-4.285-1.393-5.002-3.466l-7.863-22.752a4.856 4.856 0 0 1 .648-4.446c.983-1.383 2.61-2.209 4.353-2.209h33.154c2.275 0 4.285 1.393 5.002 3.466l7.863 22.751a4.857 4.857 0 0 1-.648 4.447c-.984 1.383-2.611 2.209-4.353 2.209zm-41.018-32.469c-1.612 0-3.117.762-4.025 2.039a4.455 4.455 0 0 0-.595 4.079l7.863 22.752c.661 1.911 2.517 3.195 4.62 3.195h33.154c1.613 0 3.117-.762 4.025-2.04a4.457 4.457 0 0 0 .595-4.08l-7.863-22.751c-.661-1.911-2.517-3.195-4.62-3.195H62.634z"/><path d="M160.999 136.077a.201.201 0 0 1-.025-.402c.003-.001.343-.044.92-.165a.199.199 0 0 1 .239.156.202.202 0 0 1-.156.239 12.26 12.26 0 0 1-.978.172zm3.186-.768a.202.202 0 0 1-.062-.394 24.91 24.91 0 0 0 2.16-.806.203.203 0 0 1 .265.107.203.203 0 0 1-.106.265c-.716.306-1.455.581-2.196.818a.186.186 0 0 1-.061.01zm4.269-1.823a.202.202 0 0 1-.097-.379 23.213 23.213 0 0 0 1.964-1.199.201.201 0 1 1 .227.333c-.637.435-1.309.846-1.998 1.22a.194.194 0 0 1-.096.025zm3.827-2.619a.201.201 0 0 1-.13-.355 20.805 20.805 0 0 0 1.663-1.585.202.202 0 0 1 .294.277c-.53.565-1.1 1.108-1.696 1.616a.206.206 0 0 1-.131.047zm3.166-3.383a.203.203 0 0 1-.162-.323c.453-.61.876-1.257 1.259-1.92a.2.2 0 0 1 .275-.074.202.202 0 0 1 .074.276 20.24 20.24 0 0 1-1.284 1.958.2.2 0 0 1-.162.083zm2.316-4.01a.204.204 0 0 1-.185-.284c.302-.691.575-1.415.808-2.151a.202.202 0 1 1 .385.123 22.46 22.46 0 0 1-.823 2.191.203.203 0 0 1-.185.121zm1.409-4.412c-.151-.028-.22-.135-.197-.244.158-.74.288-1.503.385-2.27a.195.195 0 0 1 .225-.175c.11.014.189.115.174.226-.098.778-.23 1.553-.39 2.303a.2.2 0 0 1-.197.16zm.587-4.599a.205.205 0 0 1-.202-.212 32.546 32.546 0 0 0 .032-2.307.2.2 0 0 1 .197-.206c.113-.012.203.087.206.198a33.406 33.406 0 0 1-.032 2.336.201.201 0 0 1-.201.191zm-.085-4.643a.202.202 0 0 1-.201-.186 44.083 44.083 0 0 0-.248-2.3.202.202 0 0 1 .173-.227c.104-.021.212.063.226.173.105.776.189 1.557.251 2.321a.203.203 0 0 1-.185.218l-.016.001zm-.624-4.604a.201.201 0 0 1-.198-.163c-.15-.762-.33-1.516-.533-2.241a.203.203 0 0 1 .14-.249.203.203 0 0 1 .249.14c.206.735.388 1.5.541 2.272a.202.202 0 0 1-.199.241zm-1.256-4.462a.202.202 0 0 1-.189-.131 24.249 24.249 0 0 0-.909-2.113.202.202 0 0 1 .363-.177c.337.688.647 1.41.923 2.147a.202.202 0 0 1-.188.274zm-2.04-4.158a.2.2 0 0 1-.171-.095 21.124 21.124 0 0 0-1.323-1.877.203.203 0 0 1 .032-.284.2.2 0 0 1 .283.032c.479.605.933 1.249 1.349 1.914a.201.201 0 0 1-.064.278.186.186 0 0 1-.106.032zm-2.876-3.629a.202.202 0 0 1-.142-.059 20.496 20.496 0 0 0-1.713-1.53.2.2 0 0 1-.033-.283.199.199 0 0 1 .283-.033 20.312 20.312 0 0 1 1.747 1.56.201.201 0 0 1 0 .285.198.198 0 0 1-.142.06zm-3.626-2.883a.198.198 0 0 1-.107-.031 21.484 21.484 0 0 0-2.011-1.114.202.202 0 0 1-.093-.27.201.201 0 0 1 .269-.094c.707.343 1.396.725 2.049 1.135a.201.201 0 0 1 .064.278.2.2 0 0 1-.171.096zm-4.168-2.03a.209.209 0 0 1-.069-.012 23.934 23.934 0 0 0-2.199-.684.202.202 0 0 1-.145-.247.206.206 0 0 1 .246-.145c.755.196 1.507.43 2.236.696a.202.202 0 0 1-.069.392zm-4.494-1.162c-1.421-.219-2.312-.223-2.321-.223a.202.202 0 0 1 0-.404c.037 0 .928.002 2.352.225.11.017.186.12.168.231a.201.201 0 0 1-.199.171z"/><path d="M33.905 87.117a.202.202 0 0 1-.191-.137 105.97 105.97 0 0 1-.725-2.214.202.202 0 0 1 .132-.253.2.2 0 0 1 .253.132c.231.739.474 1.474.722 2.205a.204.204 0 0 1-.126.257.25.25 0 0 1-.065.01zm-1.381-4.439a.201.201 0 0 1-.194-.149 44.373 44.373 0 0 1-.561-2.266.201.201 0 1 1 .393-.087c.159.724.341 1.459.556 2.246a.2.2 0 0 1-.141.248.163.163 0 0 1-.053.008zm-.983-4.54a.202.202 0 0 1-.199-.172 32.13 32.13 0 0 1-.133-.988 23.721 23.721 0 0 1-.117-1.341.2.2 0 0 1 .189-.213c.101-.025.207.079.213.19.026.434.065.878.116 1.318.038.326.082.651.131.976a.2.2 0 0 1-.169.229l-.031.001zm-.266-4.634a.204.204 0 0 1-.202-.211c.036-.785.116-1.57.236-2.334a.202.202 0 0 1 .399.063 21.07 21.07 0 0 0-.231 2.289.204.204 0 0 1-.202.193zm.727-4.582c-.161-.038-.224-.149-.194-.257.213-.757.471-1.503.769-2.218a.204.204 0 0 1 .264-.108.203.203 0 0 1 .108.265 18.851 18.851 0 0 0-.753 2.171.2.2 0 0 1-.194.147zm1.785-4.277a.203.203 0 0 1-.175-.303c.387-.677.821-1.336 1.29-1.959a.199.199 0 0 1 .282-.04.202.202 0 0 1 .04.283 18.21 18.21 0 0 0-1.262 1.917.202.202 0 0 1-.175.102zm28.302-.465a.202.202 0 0 1-.048-.398c.628-.154 1.147-.705 1.389-1.474a.204.204 0 0 1 .253-.132.202.202 0 0 1 .132.253c-.284.905-.912 1.557-1.678 1.745a.166.166 0 0 1-.048.006zm-2.038-.803a.202.202 0 0 1-.157-.075c-.465-.578-.791-1.392-.896-2.235a.201.201 0 1 1 .4-.05c.096.77.392 1.51.81 2.03a.203.203 0 0 1-.157.33zm-23.479-2.434a.202.202 0 0 1-.144-.343 19.746 19.746 0 0 1 1.731-1.581.201.201 0 1 1 .253.314 19.107 19.107 0 0 0-1.695 1.549.199.199 0 0 1-.145.061zm26.837-.625a.203.203 0 0 1-.181-.112c-.291-.585-.758-1.143-1.428-1.705a.202.202 0 0 1 .259-.31c.714.599 1.214 1.199 1.53 1.835a.203.203 0 0 1-.18.292zm-4.128-1.388c-.142-.02-.216-.123-.199-.234a10.83 10.83 0 0 1 .426-1.732 16.639 16.639 0 0 0-1.637-.788.202.202 0 0 1 .154-.373c.552.23 1.095.49 1.619.776l.061-.159a.202.202 0 0 1 .375.148l-.08.211.124.072a.202.202 0 0 1-.204.348c-.228.498-.357 1.031-.44 1.56a.202.202 0 0 1-.199.171zm49.665-.628a.201.201 0 0 1-.176-.104c-.218-.392-.446-.78-.684-1.163a.201.201 0 1 1 .343-.213c.241.388.472.782.693 1.18a.203.203 0 0 1-.176.3zm-68.774-.275a.201.201 0 0 1-.107-.372 20.758 20.758 0 0 1 2.045-1.142.202.202 0 0 1 .176.364 20.748 20.748 0 0 0-2.006 1.119.204.204 0 0 1-.108.031zm4.165-2.026a.202.202 0 0 1-.067-.393c.734-.26 1.489-.481 2.248-.657a.206.206 0 0 1 .242.152.202.202 0 0 1-.152.242c-.743.172-1.485.388-2.204.643a.177.177 0 0 1-.067.013zm11.415-.554a18.987 18.987 0 0 0-2.301-.452.201.201 0 0 1-.173-.227.197.197 0 0 1 .226-.174c.78.103 1.554.256 2.3.455a.202.202 0 0 1-.052.398zm51.201-.239a.204.204 0 0 1-.162-.082 29.108 29.108 0 0 0-1.445-1.797.201.201 0 1 1 .303-.266c.51.585 1.003 1.198 1.467 1.823a.203.203 0 0 1-.042.283.21.21 0 0 1-.121.039zm-58.103-.249a.201.201 0 0 1-.2-.18.201.201 0 0 1 .178-.223c.734-.083 1.49-.107 2.198-.123l.143.001a.202.202 0 0 1-.003.404l-.14-.001c-.693.009-1.433.04-2.153.121l-.023.001zm12.082-.337a.202.202 0 0 1-.172-.308c.394-.643.857-1.284 1.375-1.906a.201.201 0 1 1 .309.259 15.834 15.834 0 0 0-1.34 1.859.202.202 0 0 1-.172.096zm42.969-2.912a.2.2 0 0 1-.14-.057 28.958 28.958 0 0 0-1.716-1.543.204.204 0 0 1-.027-.285.203.203 0 0 1 .284-.027c.595.493 1.18 1.02 1.739 1.564.08.078.082.206.004.286a.196.196 0 0 1-.144.062zm-40.019-.66a.203.203 0 0 1-.147-.063.203.203 0 0 1 .008-.286 23.7 23.7 0 0 1 1.78-1.522.2.2 0 0 1 .283.037.201.201 0 0 1-.037.283c-.619.479-1.208.982-1.749 1.496a.2.2 0 0 1-.138.055zm36.446-2.303a.202.202 0 0 1-.116-.037 28.858 28.858 0 0 0-1.939-1.249.202.202 0 0 1-.072-.276.204.204 0 0 1 .276-.072 29.01 29.01 0 0 1 1.966 1.266.203.203 0 0 1-.115.368zm-32.786-.546a.202.202 0 0 1-.108-.372 29.672 29.672 0 0 1 2.014-1.187.201.201 0 1 1 .191.355c-.683.368-1.352.762-1.987 1.171a.202.202 0 0 1-.11.033zm28.788-1.807a.198.198 0 0 1-.088-.02 29.711 29.711 0 0 0-2.111-.922.202.202 0 0 1-.115-.261.2.2 0 0 1 .261-.115 29.9 29.9 0 0 1 2.141.935.202.202 0 0 1-.088.383zM71.627 46a.201.201 0 0 1-.184-.12.203.203 0 0 1 .102-.267c.71-.316 1.439-.61 2.167-.874a.204.204 0 0 1 .259.121.203.203 0 0 1-.121.259c-.72.26-1.44.55-2.14.863a.21.21 0 0 1-.083.018zm20.385-1.292a35.121 35.121 0 0 0-2.288-.589.2.2 0 0 1-.153-.24.196.196 0 0 1 .24-.154c.758.166 1.518.364 2.26.588a.203.203 0 0 1 .135.252.203.203 0 0 1-.194.143zm-16.021-.284a.202.202 0 0 1-.054-.396 29.816 29.816 0 0 1 2.274-.541c.122-.018.216.051.237.159a.202.202 0 0 1-.159.237c-.742.146-1.497.325-2.243.534a.267.267 0 0 1-.055.007zm11.493-.71a32.99 32.99 0 0 0-2.32-.24.2.2 0 0 1-.187-.215c.007-.111.101-.203.215-.188.78.052 1.561.133 2.321.24a.202.202 0 0 1-.029.403zm-6.941-.176a.201.201 0 0 1-.021-.402 23.052 23.052 0 0 1 2.337-.135c.125.011.202.089.203.201a.2.2 0 0 1-.2.203c-.74.004-1.512.049-2.296.133h-.023z"/><path d="M174.284 157H20.226a.202.202 0 0 1 0-.404h154.058a.202.202 0 0 1 0 .404z"/><path d="M149.56 124.093a.202.202 0 0 1-.202-.202V92.005a.202.202 0 0 1 .404 0v31.886a.202.202 0 0 1-.202.202z"/><path d="M107.598 70.681H92.371a.202.202 0 0 1 0-.404h15.227a.202.202 0 0 1 0 .404z"/><path d="M51.595 79.834a.202.202 0 0 1-.202-.202v-4.306c0-2.784 2.261-5.05 5.04-5.05h16.535a.202.202 0 0 1 0 .404H56.433a4.646 4.646 0 0 0-4.636 4.645v4.306a.203.203 0 0 1-.202.203z"/><path d="M51.595 116.971a.202.202 0 0 1-.202-.202V90.73a.202.202 0 0 1 .404 0v26.039a.203.203 0 0 1-.202.202z"/><path d="M150.103 88.775h-35.317c-2.779 0-5.04-2.265-5.04-5.05V64.03c0-2.784 2.261-5.05 5.04-5.05h35.317c2.779 0 5.04 2.265 5.04 5.05v19.696c0 2.784-2.261 5.049-5.04 5.049zm-35.317-29.391a4.647 4.647 0 0 0-4.637 4.645v19.696a4.647 4.647 0 0 0 4.637 4.646h35.317a4.646 4.646 0 0 0 4.636-4.646V64.03a4.646 4.646 0 0 0-4.636-4.645h-35.317z"/><path d="M129.508 120.291a.21.21 0 0 1-.07-.012c-.119-.044-2.926-1.096-3.642-2.75-.28-.648-.25-1.565.078-2.337.223-.525.679-1.221 1.59-1.562a.202.202 0 0 1 .141.378c-.777.291-1.168.891-1.36 1.342-.282.664-.314 1.476-.079 2.018.605 1.399 3.032 2.385 3.372 2.517 4.872-.355 9.342-2.217 9.578-3.994.064-.486-.04-.91-.311-1.259-.489-.631-1.513-1.043-3.044-1.225a.203.203 0 0 1-.177-.224c.014-.11.111-.18.224-.177 1.643.196 2.759.66 3.316 1.379.339.438.471.962.392 1.56-.302 2.269-5.422 4.023-9.994 4.347l-.014-.001z"/><path d="M126.709 121.012a.198.198 0 0 1-.088-.02c-1.545-.747-2.532-1.745-2.935-2.966-.368-1.117-.215-2.411.43-3.643.445-.85.947-1.38 1.732-1.831a.201.201 0 0 1 .275.075.203.203 0 0 1-.075.276c-.713.409-1.168.892-1.575 1.668-.594 1.135-.738 2.317-.404 3.329.367 1.114 1.285 2.032 2.728 2.729.1.049.142.169.094.27a.205.205 0 0 1-.182.113z"/><path d="M141.968 119.105c-.155-.032-.222-.141-.196-.25.009-.038.884-3.841-2.079-5.89-1.468-1.015-2.843-1.1-4.016-1.1a.202.202 0 0 1 0-.404c1.324 0 2.756.142 4.245 1.172 3.195 2.208 2.252 6.277 2.242 6.317a.202.202 0 0 1-.196.155z"/><path d="M131.42 121.419a.202.202 0 0 1-.024-.403c8.806-1.078 9.615-4.328 9.622-4.361a.201.201 0 0 1 .395.082c-.029.144-.821 3.561-9.967 4.68l-.026.002z"/><path d="M127.904 118.039a.203.203 0 0 1-.202-.195l-.148-4.02a.202.202 0 1 1 .403-.014l.148 4.02a.203.203 0 0 1-.194.21l-.007-.001z"/><path d="M83.752 102.049h-7.753a.202.202 0 0 1 0-.404h7.753a1.993 1.993 0 0 0 1.989-1.993v-4.641a1.993 1.993 0 0 0-1.989-1.992H70.308a1.993 1.993 0 0 0-1.988 1.992v4.641c0 1.099.892 1.993 1.988 1.993h2.54a.202.202 0 0 1 0 .404h-2.54a2.396 2.396 0 0 1-2.391-2.397v-4.641a2.396 2.396 0 0 1 2.391-2.396h13.444a2.397 2.397 0 0 1 2.392 2.396v4.641a2.397 2.397 0 0 1-2.392 2.397z"/><path d="M107.187 113.284a.202.202 0 0 1 0-.404 1.993 1.993 0 0 0 1.988-1.992v-4.641a1.993 1.993 0 0 0-1.988-1.992H93.742a1.993 1.993 0 0 0-1.988 1.992v4.641c0 1.098.892 1.992 1.988 1.992h4.995a.202.202 0 0 1 0 .404h-4.995a2.396 2.396 0 0 1-2.391-2.396v-4.641a2.397 2.397 0 0 1 2.391-2.396h13.445a2.396 2.396 0 0 1 2.391 2.396v4.641a2.396 2.396 0 0 1-2.391 2.396z"/><path d="M47.809 105.171c-.791 0-1.414-.544-1.676-.909a.202.202 0 0 1 .327-.236c.033.044.801 1.086 1.897.627a.202.202 0 0 1 .154.373c-.244.102-.48.145-.702.145z"/><path d="M144.013 142.792a.203.203 0 0 1-.202-.204c.049-5.617-3.254-11.388-3.287-11.445a.201.201 0 1 1 .349-.202c.034.058 3.391 5.926 3.341 11.652a.2.2 0 0 1-.201.199z"/><path d="M41.009 100.778a.202.202 0 0 1-.013-.403c.03-.003 1.248-.126 3.45-2.016.998-.858 1.525-2.019 2.034-3.143.119-.261.235-.518.355-.765a.202.202 0 1 1 .362.176 36.32 36.32 0 0 0-.35.756c-.504 1.109-1.073 2.367-2.139 3.282-2.342 2.012-3.633 2.11-3.687 2.113h-.012z"/><path d="M31.107 103.381a.203.203 0 0 1-.196-.154c-.229-.938-1.319-7.308-.602-9.109 1.021-2.564 4.447-3.27 5.472-3.425a7.396 7.396 0 0 1 2.596.09c.564.116 1.289.298 1.611.624.719-.98 2.103-1.392 3.239-1.446a6.72 6.72 0 0 1 3.917 1.045c1.266.814 1.933 2.028 1.83 3.334-.087 1.105-.695 2.82-1.526 3.663a.2.2 0 0 1-.285.002.203.203 0 0 1-.002-.286c.743-.754 1.33-2.373 1.411-3.411.092-1.169-.492-2.22-1.646-2.962a6.269 6.269 0 0 0-3.68-.98c-1.152.054-2.574.498-3.117 1.581a.198.198 0 0 1-.249.099.202.202 0 0 1-.127-.237c.004-.017.007-.037-.015-.072-.071-.112-.349-.332-1.415-.552-.89-.183-1.692-.211-2.481-.092-.972.147-4.217.811-5.158 3.175-.639 1.606.318 7.63.62 8.862a.204.204 0 0 1-.197.251z"/><path d="M37.735 120.241c-1.944 0-3.747-.906-5.104-2.599a4.82 4.82 0 0 1-3.5.495c-1.241-.306-2.315-1.159-2.802-2.227-.796-1.743 0-3.729 1.892-4.721.137-.071.756-.428 1.128-.643a35.774 35.774 0 0 1-.531-.351 4.11 4.11 0 0 1-.816-.743c-.564-.677-.901-1.544-.972-2.509-.076-1.012.171-1.961.695-2.672.734-.996 1.975-1.468 3.409-1.292.11.013.189.114.176.225a.2.2 0 0 1-.225.175c-1.283-.158-2.391.255-3.035 1.131-.466.633-.685 1.487-.617 2.403.066.879.37 1.668.88 2.279.21.251.458.477.737.67.168.117.796.524.796.525a.2.2 0 0 1 .092.174.203.203 0 0 1-.101.17c-.05.029-1.223.709-1.428.816-1.723.904-2.426 2.629-1.712 4.195.437.958 1.407 1.725 2.532 2.002a4.399 4.399 0 0 0 3.344-.538.2.2 0 0 1 .267.047c1.614 2.103 3.826 2.969 6.233 2.434.649-.144 1.833-.529 2.468-1.494.238-.362.365-.763.377-1.194-.001-.177-.162-1.186-.271-1.42a.203.203 0 0 1 .025-.372c1.304-.45 2.414-1.352 3.044-2.476.742-1.325.77-2.832.086-4.606-.597-1.548-2.144-3.311-3.944-3.684a.202.202 0 0 1 .081-.395c1.941.402 3.601 2.283 4.238 3.933.73 1.894.694 3.513-.111 4.949-.638 1.14-1.732 2.066-3.024 2.572.185.501.278 1.497.278 1.508a2.65 2.65 0 0 1-.443 1.404c-.528.803-1.493 1.394-2.717 1.666a6.38 6.38 0 0 1-1.425.163z"/><path d="M125.148 103.842a.206.206 0 0 1-.099-.026c-.038-.022-3.817-2.212-2.124-5.705.59-1.218 1.571-2.008 2.837-2.284 1.92-.417 4.021.407 5.16 1.349a.204.204 0 0 1 .027.285.201.201 0 0 1-.284.027c-1.067-.883-3.026-1.655-4.817-1.266-1.156.252-2.017.947-2.559 2.065-1.53 3.156 1.817 5.095 1.96 5.177a.203.203 0 0 1 .077.275.209.209 0 0 1-.178.103z"/><path d="M135.953 97.19a.2.2 0 0 1-.147-.064c-1.333-1.428-2.717-2.16-4.112-2.175-1.838 0-3.041 1.214-3.053 1.226a.2.2 0 0 1-.285.004.201.201 0 0 1-.004-.285c.054-.055 1.33-1.349 3.299-1.349 1.554.014 3.037.789 4.45 2.303a.203.203 0 0 1-.009.286.206.206 0 0 1-.139.054z"/><path d="M127.563 109.499c-.414 0-.859-.068-1.051-.33-.093-.128-.168-.352.01-.695.521-1.008 1.319-4.425 1.327-4.46a.201.201 0 1 1 .392.091c-.033.143-.817 3.501-1.362 4.554-.045.087-.089.206-.042.27.141.193.877.201 1.479.097a.198.198 0 0 1 .233.164.203.203 0 0 1-.164.234 4.842 4.842 0 0 1-.822.075z"/><path d="M134.414 106.252a.204.204 0 0 1-.179-.108c-.78-1.496-.498-3.471-.343-4.246-5.762 1.436-9.598-.496-9.83-.759a.202.202 0 0 1 .017-.285.2.2 0 0 1 .268.001c.111.068 3.872 2.147 9.762.569a.207.207 0 0 1 .192.05.203.203 0 0 1 .057.19c-.03.113-.665 2.569.234 4.293a.204.204 0 0 1-.085.273.202.202 0 0 1-.093.022z"/><path d="M119.221 71.644a3.621 3.621 0 0 1 0-7.241 3.621 3.621 0 0 1 0 7.241zm0-6.836a3.217 3.217 0 0 0 0 6.432 3.218 3.218 0 0 0 3.211-3.216 3.218 3.218 0 0 0-3.211-3.216z"/><path d="M149.201 66.899h-21.718a.202.202 0 0 1 0-.404h21.718c.111 0 .202.091.202.202 0 .112-.09.202-.202.202z"/><path d="M149.201 75.912H131.16a.203.203 0 0 1-.202-.202c0-.112.09-.202.202-.202h18.041a.202.202 0 0 1 0 .404z"/><path d="M125.301 75.912h-9.492a.203.203 0 0 1-.202-.202c0-.112.09-.202.202-.202h9.492a.202.202 0 0 1 0 .404z"/><path d="M91.553 84.994H74.32a.202.202 0 0 1-.202-.202V64.606c0-.112.09-.202.202-.202h17.232c.111 0 .202.09.202.202v20.186c0 .111-.09.202-.201.202zm-17.031-.404h16.829V64.808H74.522V84.59z"/><path d="M87.424 72.582h-8.847a.202.202 0 0 1 0-.404h8.847a.202.202 0 0 1 0 .404z"/><path d="M87.424 75.701h-8.847a.202.202 0 0 1 0-.404h8.847a.202.202 0 0 1 0 .404z"/><path d="M87.424 78.82h-8.847a.202.202 0 0 1 0-.404h8.847a.202.202 0 0 1 0 .404z"/><path d="M112.072 106.609a.202.202 0 0 1-.202-.202v-8.872H90.409a.202.202 0 0 1 0-.404h21.663c.111 0 .202.091.202.202v9.074c0 .111-.09.202-.202.202z"/><path d="M83.001 69.163a1.601 1.601 0 0 1 0-3.201 1.601 1.601 0 0 1 0 3.201zm0-2.797a1.196 1.196 0 0 0 0 2.393 1.196 1.196 0 0 0 0-2.393z"/><path d="M88.176 98.933a1.601 1.601 0 0 1 0-3.202 1.6 1.6 0 0 1 0 3.202zm0-2.797a1.196 1.196 0 0 0 0 2.394 1.197 1.197 0 0 0 0-2.394z"/><path d="M112.072 110.258a1.601 1.601 0 0 1 0-3.202 1.601 1.601 0 0 1 0 3.202zm0-2.797a1.196 1.196 0 0 0 0 2.394 1.197 1.197 0 0 0 0-2.394z"/></g></g>
</svg>